<?xml version="1.0" encoding="UTF-8"?>
<svg width="27px" height="35px" viewBox="0 0 27 35" version="1.1" xmlns="http://www.w3.org/2000/svg" xmlns:xlink="http://www.w3.org/1999/xlink">
    <!-- Generator: Sketch 54.1 (76490) - https://sketchapp.com -->
    <title>Icons/Globe-icon</title>
    <desc>Created with Sketch.</desc>
    <defs>
        <path d="M30.0218007,9.63860866 C31.151596,13.7108429 30.6840945,17.9881111 28.705234,21.6846473 C26.7252275,25.3811836 23.466467,28.0608465 19.5305167,29.2294213 C18.5130135,29.5316389 17.4817601,29.7200805 16.4505068,29.8030421 L16.4505068,32.6296657 L21.7935449,32.6296657 C22.4271928,32.6296657 22.939382,33.1606206 22.939382,33.8148329 C22.939382,34.4702303 22.4271928,35 21.7935449,35 L8.81579456,35 C8.18214667,35 7.66995751,34.4702303 7.66995751,33.8148329 C7.66995751,33.1606206 8.18214667,32.6296657 8.81579456,32.6296657 L14.1588327,32.6296657 L14.1588327,29.7817091 C11.9817423,29.6157857 9.84590206,28.9923878 7.8830832,27.8676642 C7.32849807,27.5512246 7.12912243,26.8294578 7.43506092,26.2570221 C7.74214525,25.6845864 8.44110584,25.4771821 8.99225346,25.7936218 C12.0310133,27.5358174 15.5510247,27.9435149 18.8980147,26.95153 C22.2461505,25.9571748 25.0179303,23.6792836 26.7000191,20.5362204 C28.3821079,17.3931572 28.7808592,13.7558793 27.8195019,10.2928209 C26.8581446,6.8285774 24.6547,3.96284329 21.617086,2.22183278 C21.0636467,1.90420799 20.8631252,1.18362637 21.1690637,0.611190653 C21.476148,0.0375697632 22.1739628,-0.16746415 22.7274021,0.147790306 C26.3012678,2.1957591 28.8920054,5.56637441 30.0218007,9.63860866 Z M26.25,13.8541667 C26.25,19.8848922 21.3434911,24.7916667 15.3130921,24.7916667 C9.28269314,24.7916667 4.375,19.8848922 4.375,13.8541667 C4.375,7.82344117 9.28269314,2.91666667 15.3130921,2.91666667 C21.3434911,2.91666667 26.25,7.82344117 26.25,13.8541667 Z" id="path-1"></path>
    </defs>
    <g id="Page-1" stroke="none" stroke-width="1" fill="none" fill-rule="evenodd">
        <g id="About-Us---Desktop" transform="translate(-383.000000, -3801.000000)">
            <g id="Content---white" transform="translate(273.000000, 3643.000000)">
                <g id="Group-4" transform="translate(25.000000, 158.000000)">
                    <g id="Icons/Dev-tools/Language-Switcher" transform="translate(81.000000, 0.000000)">
                        <mask id="mask-2" fill="white">
                            <use xlink:href="#path-1"></use>
                        </mask>
                        <use id="Icons/Utilities/Language-Switcher" fill="#3F5D75" fill-rule="evenodd" xlink:href="#path-1"></use>
                        <g id="Colors/Light-Greys/Olaf" mask="url(#mask-2)" fill="#FFFFFF" fill-rule="evenodd">
                            <polygon id="Rectangle-3-Copy-36" points="0 0 35 0 35 35 0 35"></polygon>
                        </g>
                    </g>
                </g>
            </g>
        </g>
    </g>
</svg>