<?xml version="1.0" encoding="UTF-8"?>
<svg width="35px" height="31px" viewBox="0 0 35 31" version="1.1" xmlns="http://www.w3.org/2000/svg" xmlns:xlink="http://www.w3.org/1999/xlink">
    <!-- Generator: Sketch 54.1 (76490) - https://sketchapp.com -->
    <title>Icons/HUG-icon</title>
    <desc>Created with Sketch.</desc>
    <defs>
        <path d="M6.7859517,27.7083333 L2.2619839,27.7083333 C1.01223779,27.7083333 0,26.6931713 0,25.4398148 L0,19.7685185 C0,17.4534954 1.73494165,15.566088 3.96751976,15.2881944 C2.93718609,14.2650926 2.2619839,12.6862037 2.2619839,11.3250926 C2.2619839,9.09740741 4.06252308,7.29166667 6.28379127,7.29166667 C8.20873957,7.29166667 9.81361714,8.65050926 10.2083333,10.4630556 C8.18159576,11.6290741 6.80857153,13.8102546 6.78821368,16.3112963 C6.78821368,16.3112963 6.78708269,16.3124306 6.7859517,16.3124306 L6.7859517,16.3657407 L6.7859517,27.7083333 Z M31.0320406,15.2881944 C33.2648661,15.566088 35,17.4546296 35,19.7685185 L35,25.4398148 C35,26.6931713 33.98765,27.7083333 32.7377655,27.7083333 L28.2132964,27.7083333 L28.2132964,16.3657407 L28.2132964,16.3124306 L28.2110342,16.3124306 C28.1906741,13.8102546 26.8174977,11.6302083 24.7916667,10.4641898 C25.1852955,8.65164352 26.7903509,7.29166667 28.7166436,7.29166667 C30.9370268,7.29166667 32.7377655,9.09740741 32.7377655,11.3250926 C32.7377655,12.687338 32.0624885,14.2650926 31.0320406,15.2881944 Z M8.75,16.3782051 C8.75,13.9001603 10.7089062,11.8910256 13.125,11.8910256 L15.0532812,11.8910256 C14.7196875,11.5657051 14.42,11.1831731 14.1607813,10.7692308 C13.93875,10.4147436 13.7484375,10.0366987 13.593125,9.6474359 C13.295625,8.90592949 13.125,8.12740385 13.125,7.40384615 C13.125,4.92580128 15.0839062,2.91666667 17.5,2.91666667 C19.9160938,2.91666667 21.875,4.92580128 21.875,7.40384615 C21.875,8.12740385 21.704375,8.90592949 21.406875,9.6474359 C21.2515625,10.0366987 21.06125,10.4147436 20.8392187,10.7692308 C20.58,11.1831731 20.2803125,11.5657051 19.9467188,11.8910256 L21.875,11.8910256 C24.2910938,11.8910256 26.25,13.9001603 26.25,16.3782051 L26.25,29.8397436 C26.25,31.0793269 25.2710938,32.0833333 24.0625,32.0833333 L10.9375,32.0833333 C9.72890625,32.0833333 8.75,31.0793269 8.75,29.8397436 L8.75,16.3782051 Z" id="path-1"></path>
    </defs>
    <g id="Page-1" stroke="none" stroke-width="1" fill="none" fill-rule="evenodd">
        <g id="About-Us---Desktop" transform="translate(-380.000000, -4133.000000)">
            <g id="Content---white" transform="translate(273.000000, 3643.000000)">
                <g id="Group-4" transform="translate(25.000000, 158.000000)">
                    <g id="Icons/HubSpot-objects/Lists" transform="translate(82.000000, 330.000000)">
                        <mask id="mask-2" fill="white">
                            <use xlink:href="#path-1"></use>
                        </mask>
                        <use id="Icons/Content/Lists" fill="#3F5D75" fill-rule="evenodd" xlink:href="#path-1"></use>
                        <g id="Colors/Light-Greys/Olaf" mask="url(#mask-2)" fill="#FFFFFF" fill-rule="evenodd">
                            <polygon id="Rectangle-3-Copy-36" points="0 0 35 0 35 35 0 35"></polygon>
                        </g>
                    </g>
                </g>
            </g>
        </g>
    </g>
</svg>